<svg width="478" height="478" viewBox="0 0 478 478" fill="none" xmlns="http://www.w3.org/2000/svg">
<g filter="url(#filter0_f_3783_1258)">
<rect x="4" y="4" width="470" height="470" rx="100" fill="#FBFBFB"/>
<rect x="4.5" y="4.5" width="469" height="469" rx="99.5" stroke="#474747"/>
</g>
<mask id="mask0_3783_1258" style="mask-type:alpha" maskUnits="userSpaceOnUse" x="39" y="56" width="400" height="366">
<rect x="39" y="56" width="400" height="365.421" fill="#D9D9D9"/>
</mask>
<g mask="url(#mask0_3783_1258)">
<path d="M272.332 204.453V186.943C281.498 183.187 290.873 180.345 300.457 178.417C310.04 176.488 320.109 175.524 330.665 175.524C337.887 175.524 344.971 176.031 351.915 177.046C358.859 178.061 365.665 179.33 372.332 180.853V197.601C365.665 195.317 358.929 193.604 352.123 192.462C345.318 191.321 338.165 190.75 330.665 190.75C320.109 190.75 309.971 191.955 300.248 194.366C290.526 196.776 281.221 200.139 272.332 204.453ZM272.332 288.195V270.305C281.498 266.676 290.873 263.929 300.457 262.064C310.04 260.198 320.109 259.266 330.665 259.266C337.887 259.266 344.971 259.773 351.915 260.788C358.859 261.804 365.665 263.072 372.332 264.595V281.343C365.665 279.059 358.929 277.347 352.123 276.205C345.318 275.063 338.165 274.492 330.665 274.492C320.109 274.492 309.971 275.634 300.248 277.918C290.526 280.201 281.221 283.627 272.332 288.195ZM272.332 246.324V228.814C281.498 225.058 290.873 222.216 300.457 220.288C310.04 218.359 320.109 217.395 330.665 217.395C337.887 217.395 344.971 217.902 351.915 218.917C358.859 219.932 365.665 221.201 372.332 222.724V239.472C365.665 237.188 358.929 235.475 352.123 234.334C345.318 233.192 338.165 232.621 330.665 232.621C320.109 232.621 309.971 233.826 300.248 236.237C290.526 238.648 281.221 242.01 272.332 246.324ZM141.498 309.131C156.379 309.131 170.862 310.78 184.948 314.079C199.037 317.378 212.887 322.073 226.498 328.163V164.005C213.998 156.712 200.44 150.972 185.823 146.785C171.207 142.598 156.432 140.504 141.498 140.504C130.943 140.504 120.457 141.71 110.04 144.12C99.6234 146.531 89.2761 149.531 78.9984 153.119V319.789C87.8873 316.236 97.8637 313.571 108.928 311.795C119.991 310.019 130.848 309.131 141.498 309.131ZM253.582 328.163C267.476 322.073 280.986 317.378 294.111 314.079C307.239 310.78 321.339 309.131 336.411 309.131C347.025 309.131 358.026 309.892 369.415 311.414C380.804 312.937 390.665 315.094 398.998 317.885V153.408C389.554 148.866 379.44 145.58 368.657 143.549C357.873 141.519 347.125 140.504 336.411 140.504C321.339 140.504 306.89 142.598 293.065 146.785C279.243 150.972 266.082 156.712 253.582 164.005V328.163ZM239.832 365.086C225.787 355.176 210.364 347.561 193.561 342.239C176.755 336.915 159.401 334.253 141.498 334.253C130.712 334.253 120.239 335.522 110.078 338.06C99.9136 340.597 89.8317 343.642 79.8317 347.195C73.4984 349.987 67.2623 349.669 61.1234 346.244C54.9845 342.818 51.915 337.679 51.915 330.827V149.141C51.915 145.413 52.8873 141.963 54.8317 138.791C56.7761 135.619 59.6928 133.145 63.5817 131.369C75.9095 126.04 88.5511 122.106 101.507 119.569C114.462 117.031 127.798 115.762 141.515 115.762C159.004 115.762 176.151 117.983 192.957 122.424C209.762 126.864 225.387 133.399 239.832 142.027C254.276 133.399 269.625 126.864 285.878 122.424C302.133 117.983 319.007 115.762 336.498 115.762C350.154 115.762 363.429 117.094 376.323 119.759C389.218 122.424 401.776 126.293 413.998 131.369C417.887 133.145 420.873 135.619 422.957 138.791C425.04 141.963 426.082 145.453 426.082 149.259V330.827C426.082 337.905 422.866 343.291 416.436 346.986C410.005 350.678 403.776 350.748 397.748 347.195C388.026 343.389 378.071 340.28 367.882 337.869C357.69 335.459 347.187 334.253 336.373 334.253C318.957 334.253 302.054 336.979 285.665 342.429C269.276 347.878 253.998 355.43 239.832 365.086Z" fill="#1C1B1F"/>
</g>
<defs>
<filter id="filter0_f_3783_1258" x="0" y="0" width="478" height="478" filterUnits="userSpaceOnUse" color-interpolation-filters="sRGB">
<feFlood flood-opacity="0" result="BackgroundImageFix"/>
<feBlend mode="normal" in="SourceGraphic" in2="BackgroundImageFix" result="shape"/>
<feGaussianBlur stdDeviation="2" result="effect1_foregroundBlur_3783_1258"/>
</filter>
</defs>
</svg>
