<svg width="48" height="37" viewBox="0 0 48 37" fill="none" xmlns="http://www.w3.org/2000/svg">
<path d="M28.1663 13.5369V10.9966C29.3122 10.4518 30.484 10.0394 31.682 9.75964C32.8799 9.47985 34.1386 9.33995 35.458 9.33995C36.3608 9.33995 37.2462 9.41358 38.1143 9.56084C38.9823 9.7081 39.833 9.89218 40.6663 10.1131V12.5429C39.833 12.2115 38.991 11.963 38.1403 11.7974C37.2896 11.6317 36.3955 11.5489 35.458 11.5489C34.1386 11.5489 32.8712 11.7237 31.6559 12.0735C30.4406 12.4232 29.2775 12.911 28.1663 13.5369ZM28.1663 25.686V23.0905C29.3122 22.564 30.484 22.1655 31.682 21.8949C32.8799 21.6243 34.1386 21.489 35.458 21.489C36.3608 21.489 37.2462 21.5627 38.1143 21.7099C38.9823 21.8572 39.833 22.0413 40.6663 22.2622V24.692C39.833 24.3606 38.991 24.1121 38.1403 23.9465C37.2896 23.7808 36.3955 23.698 35.458 23.698C34.1386 23.698 32.8712 23.8636 31.6559 24.195C30.4406 24.5263 29.2775 25.0233 28.1663 25.686ZM28.1663 19.6114V17.0712C29.3122 16.5263 30.484 16.114 31.682 15.8342C32.8799 15.5544 34.1386 15.4145 35.458 15.4145C36.3608 15.4145 37.2462 15.4881 38.1143 15.6354C38.9823 15.7826 39.833 15.9667 40.6663 16.1876V18.6174C39.833 18.2861 38.991 18.0376 38.1403 17.8719C37.2896 17.7062 36.3955 17.6234 35.458 17.6234C34.1386 17.6234 32.8712 17.7983 31.6559 18.148C30.4406 18.4978 29.2775 18.9856 28.1663 19.6114ZM11.8122 28.7233C13.6722 28.7233 15.4827 28.9626 17.2434 29.4412C19.0045 29.9198 20.7358 30.6008 22.4372 31.4844V7.6689C20.8747 6.61082 19.1799 5.77806 17.3528 5.1706C15.5257 4.56315 13.6788 4.25942 11.8122 4.25942C10.4927 4.25942 9.18197 4.4343 7.87988 4.78404C6.5778 5.13379 5.2844 5.56895 3.99967 6.08952V30.2695C5.11079 29.7541 6.35783 29.3675 7.74082 29.1098C9.12381 28.8521 10.4809 28.7233 11.8122 28.7233ZM25.8226 31.4844C27.5594 30.6008 29.2481 29.9198 30.8887 29.4412C32.5297 28.9626 34.2922 28.7233 36.1762 28.7233C37.503 28.7233 38.8781 28.8337 40.3018 29.0546C41.7254 29.2755 42.958 29.5884 43.9997 29.9934V6.13149C42.8191 5.47249 41.5549 4.99573 40.207 4.70121C38.859 4.40668 37.5155 4.25942 36.1762 4.25942C34.2922 4.25942 32.4861 4.56315 30.758 5.1706C29.0302 5.77806 27.3851 6.61082 25.8226 7.6689V31.4844ZM24.1038 36.841C22.3483 35.4034 20.4203 34.2986 18.32 33.5266C16.2193 32.7542 14.05 32.368 11.8122 32.368C10.4639 32.368 9.15471 32.5521 7.88457 32.9202C6.61408 33.2884 5.35384 33.7301 4.10384 34.2456C3.31217 34.6505 2.53266 34.6045 1.7653 34.1075C0.997938 33.6105 0.614258 32.865 0.614258 31.871V5.51243C0.614258 4.97162 0.735786 4.47111 0.978841 4.01092C1.2219 3.55073 1.58648 3.19178 2.07259 2.93407C3.61356 2.16095 5.19377 1.59031 6.81322 1.22215C8.43266 0.853999 10.0997 0.669922 11.8143 0.669922C14.0004 0.669922 16.1438 0.992057 18.2445 1.63633C20.3452 2.2806 22.2983 3.22859 24.1038 4.48032C25.9094 3.22859 27.828 2.2806 29.8596 1.63633C31.8915 0.992057 34.0007 0.669922 36.1872 0.669922C37.8941 0.669922 39.5535 0.863203 41.1653 1.24976C42.7771 1.63633 44.3469 2.19776 45.8747 2.93407C46.3608 3.19178 46.7341 3.55073 46.9945 4.01092C47.2549 4.47111 47.3851 4.97732 47.3851 5.52955V31.871C47.3851 32.8978 46.9832 33.6792 46.1794 34.2152C45.3755 34.7509 44.5969 34.761 43.8434 34.2456C42.6281 33.6933 41.3837 33.2423 40.1101 32.8926C38.8361 32.5429 37.5233 32.368 36.1716 32.368C33.9945 32.368 31.8816 32.7634 29.833 33.5542C27.7844 34.3446 25.8747 35.4402 24.1038 36.841Z" fill="#1C1B1F"/>
</svg>
