<svg width="297" height="86" viewBox="0 0 297 86" fill="none" xmlns="http://www.w3.org/2000/svg">
<rect width="297" height="85.0142" fill="white"/>
<mask id="mask0_2955_1079" style="mask-type:alpha" maskUnits="userSpaceOnUse" x="16" y="16" width="50" height="54">
<rect x="16" y="16" width="50" height="53.0142" fill="#D9D9D9"/>
</mask>
<g mask="url(#mask0_2955_1079)">
<path d="M45.1673 37.5371V34.9969C46.3132 34.452 47.485 34.0397 48.6829 33.7599C49.8809 33.4801 51.1395 33.3402 52.459 33.3402C53.3618 33.3402 54.2472 33.4138 55.1152 33.5611C55.9833 33.7083 56.834 33.8924 57.6673 34.1133V36.5431C56.834 36.2118 55.992 35.9633 55.1413 35.7976C54.2906 35.6319 53.3965 35.5491 52.459 35.5491C51.1395 35.5491 49.8722 35.724 48.6569 36.0737C47.4416 36.4235 46.2784 36.9113 45.1673 37.5371ZM45.1673 49.6862V47.0907C46.3132 46.5643 47.485 46.1657 48.6829 45.8951C49.8809 45.6245 51.1395 45.4892 52.459 45.4892C53.3618 45.4892 54.2472 45.5629 55.1152 45.7101C55.9833 45.8574 56.834 46.0415 57.6673 46.2624V48.6922C56.834 48.3608 55.992 48.1123 55.1413 47.9467C54.2906 47.781 53.3965 47.6982 52.459 47.6982C51.1395 47.6982 49.8722 47.8638 48.6569 48.1952C47.4416 48.5265 46.2784 49.0235 45.1673 49.6862ZM45.1673 43.6117V41.0714C46.3132 40.5265 47.485 40.1142 48.6829 39.8344C49.8809 39.5546 51.1395 39.4147 52.459 39.4147C53.3618 39.4147 54.2472 39.4883 55.1152 39.6356C55.9833 39.7829 56.834 39.9669 57.6673 40.1878V42.6176C56.834 42.2863 55.992 42.0378 55.1413 41.8721C54.2906 41.7065 53.3965 41.6236 52.459 41.6236C51.1395 41.6236 49.8722 41.7985 48.6569 42.1482C47.4416 42.498 46.2784 42.9858 45.1673 43.6117ZM28.8132 52.7235C30.6732 52.7235 32.4836 52.9628 34.2444 53.4414C36.0055 53.92 37.7368 54.6011 39.4382 55.4846V31.6691C37.8757 30.611 36.1809 29.7783 34.3538 29.1708C32.5267 28.5634 30.6798 28.2596 28.8132 28.2596C27.4937 28.2596 26.1829 28.4345 24.8809 28.7843C23.5788 29.134 22.2854 29.5692 21.0007 30.0897V54.2697C22.1118 53.7543 23.3588 53.3677 24.7418 53.11C26.1248 52.8523 27.4819 52.7235 28.8132 52.7235ZM42.8236 55.4846C44.5604 54.6011 46.2491 53.92 47.8897 53.4414C49.5307 52.9628 51.2932 52.7235 53.1772 52.7235C54.5039 52.7235 55.8791 52.8339 57.3027 53.0548C58.7263 53.2757 59.959 53.5886 61.0007 53.9936V30.1317C59.8201 29.4727 58.5559 28.9959 57.2079 28.7014C55.86 28.4069 54.5164 28.2596 53.1772 28.2596C51.2932 28.2596 49.4871 28.5634 47.759 29.1708C46.0312 29.7783 44.3861 30.611 42.8236 31.6691V55.4846ZM41.1048 60.8413C39.3493 59.4036 37.4213 58.2988 35.321 57.5268C33.2203 56.7544 31.051 56.3682 28.8132 56.3682C27.4649 56.3682 26.1557 56.5523 24.8855 56.9204C23.6151 57.2886 22.3548 57.7304 21.1048 58.2458C20.3132 58.6507 19.5336 58.6047 18.7663 58.1077C17.9989 57.6107 17.6152 56.8652 17.6152 55.8712V29.5126C17.6152 28.9718 17.7368 28.4713 17.9798 28.0111C18.2229 27.5509 18.5875 27.192 19.0736 26.9343C20.6145 26.1612 22.1947 25.5905 23.8142 25.2224C25.4336 24.8542 27.1007 24.6701 28.8152 24.6701C31.0013 24.6701 33.1447 24.9923 35.2454 25.6365C37.3461 26.2808 39.2993 27.2288 41.1048 28.4805C42.9104 27.2288 44.8289 26.2808 46.8605 25.6365C48.8925 24.9923 51.0017 24.6701 53.1882 24.6701C54.8951 24.6701 56.5545 24.8634 58.1663 25.25C59.7781 25.6365 61.3479 26.198 62.8756 26.9343C63.3618 27.192 63.735 27.5509 63.9954 28.0111C64.2559 28.4713 64.3861 28.9775 64.3861 29.5298V55.8712C64.3861 56.898 63.9842 57.6794 63.1803 58.2154C62.3765 58.7511 61.5979 58.7612 60.8444 58.2458C59.6291 57.6935 58.3847 57.2426 57.1111 56.8928C55.8371 56.5431 54.5243 56.3682 53.1725 56.3682C50.9954 56.3682 48.8826 56.7636 46.834 57.5544C44.7854 58.3448 42.8757 59.4404 41.1048 60.8413Z" fill="#1C1B1F"/>
</g>
<path d="M100.041 34.804H101.877V42.5676L109.318 34.804H111.74L105.119 41.5422L112.639 51.0051H110.178L103.859 42.6653L101.877 44.5891V51.0051H100.041V34.804ZM117.201 39.2083V41.3274C117.8 40.5461 118.49 39.9537 119.271 39.55C119.994 39.1724 120.727 38.9836 121.469 38.9836C122.445 38.9836 123.282 39.2245 123.979 39.7063C125.033 40.442 125.561 41.7213 125.561 43.5442V51.0051H123.744V43.7688C123.744 41.6334 122.908 40.5657 121.234 40.5657C120.59 40.5657 119.965 40.748 119.359 41.1125C118.448 41.6464 117.748 42.4439 117.26 43.5051V51.0051H115.424V39.2083H117.201ZM134.83 38.9055C136.438 38.9055 137.799 39.4524 138.912 40.5461C140.09 41.6985 140.68 43.2154 140.68 45.0969C140.68 46.1972 140.478 47.1868 140.074 48.0657C139.553 49.192 138.762 50.0448 137.701 50.6243C136.822 51.106 135.852 51.3469 134.791 51.3469C132.877 51.3469 131.36 50.6405 130.24 49.2278C129.361 48.121 128.922 46.7441 128.922 45.0969C128.922 42.9485 129.671 41.2916 131.168 40.1262C132.216 39.3124 133.437 38.9055 134.83 38.9055ZM134.781 40.4094C133.59 40.4094 132.607 40.9042 131.832 41.8938C131.161 42.7467 130.826 43.8241 130.826 45.1262C130.826 46.0507 130.999 46.8678 131.344 47.5774C131.669 48.261 132.128 48.7981 132.721 49.1887C133.346 49.5989 134.042 49.804 134.811 49.804C135.742 49.804 136.562 49.5012 137.271 48.8958C138.274 48.0299 138.775 46.7701 138.775 45.1165C138.775 43.7167 138.388 42.5774 137.613 41.6985C136.852 40.8391 135.908 40.4094 134.781 40.4094ZM142.439 39.2083H144.363L146.355 46.1321C146.648 47.1347 146.889 48.0461 147.078 48.8665H147.137C147.462 47.636 147.729 46.7245 147.938 46.1321L150.096 40.0481H151.736L153.904 46.1321C154.08 46.6269 154.324 47.4635 154.637 48.6418L154.695 48.8665H154.764C154.933 48.0982 155.171 47.1868 155.477 46.1321L157.479 39.2083H159.402L155.584 51.1907H154.041L151.639 44.6477C151.385 43.9576 151.157 43.1112 150.955 42.1086H150.877C150.649 43.1959 150.424 44.0422 150.203 44.6477L147.801 51.1907H146.258L142.439 39.2083ZM162.412 33.9055H164.248V49.1301C164.248 49.384 164.368 49.511 164.609 49.511H166.172L165.967 51.0051H164.111C162.979 51.0051 162.412 50.4517 162.412 49.345V33.9055ZM179.592 45.302H170.5C170.526 46.539 170.816 47.5253 171.369 48.261C172.118 49.2571 173.205 49.7551 174.631 49.7551C176.135 49.7551 177.398 49.1041 178.42 47.802L179.553 49.0032C178.257 50.5592 176.587 51.3372 174.543 51.3372C172.505 51.3372 170.939 50.6438 169.846 49.2571C168.999 48.1829 168.576 46.8352 168.576 45.2141C168.576 43.8209 168.882 42.6067 169.494 41.5715C170.093 40.5689 170.907 39.8365 171.936 39.3743C172.652 39.0487 173.413 38.886 174.221 38.886C176.096 38.886 177.538 39.6347 178.547 41.1321C179.243 42.1672 179.592 43.3847 179.592 44.7844V45.302ZM177.678 43.9055C177.6 42.942 177.294 42.1542 176.76 41.5422C176.096 40.774 175.236 40.3899 174.182 40.3899C173.413 40.3899 172.714 40.634 172.082 41.1223C171.249 41.7603 170.747 42.6881 170.578 43.9055H177.678ZM192.084 33.9055H193.9V51.0637H192.162V49.345C191.869 49.7812 191.531 50.1392 191.146 50.4192C190.294 51.0247 189.298 51.3274 188.158 51.3274C186.96 51.3274 185.902 50.9921 184.984 50.3215C183.435 49.1952 182.66 47.4602 182.66 45.1165C182.66 43.7623 182.95 42.5839 183.529 41.5813C184.167 40.4875 185.059 39.7193 186.205 39.2766C186.824 39.0422 187.458 38.925 188.109 38.925C189.216 38.925 190.199 39.2571 191.059 39.9211C191.462 40.2336 191.804 40.6145 192.084 41.0637V33.9055ZM192.084 43.0657C191.094 41.3209 189.883 40.4485 188.451 40.4485C187.566 40.4485 186.781 40.7447 186.098 41.3372C185.089 42.203 184.584 43.4758 184.584 45.1555C184.584 46.3014 184.825 47.2649 185.307 48.0461C186.023 49.218 187.074 49.804 188.461 49.804C189.346 49.804 190.157 49.498 190.893 48.886C191.348 48.5019 191.745 47.9875 192.084 47.343V43.0657ZM207.945 39.2083V47.8313C207.945 49.4915 207.525 50.7382 206.686 51.5715C205.8 52.4504 204.514 52.8899 202.828 52.8899C200.908 52.8899 199.286 52.3821 197.965 51.3665L198.854 50.0481C199.902 50.927 201.23 51.3665 202.838 51.3665C204.199 51.3665 205.152 50.9107 205.699 49.9993C205.999 49.5045 206.148 48.9055 206.148 48.2024V46.8645C205.803 47.3202 205.348 47.6848 204.781 47.9583C204.098 48.2838 203.408 48.4465 202.711 48.4465C201.611 48.4465 200.621 48.1601 199.742 47.5872C198.336 46.6822 197.633 45.3834 197.633 43.6907C197.633 42.1933 198.238 40.9726 199.449 40.0286C200.406 39.2929 201.503 38.925 202.74 38.925C204.101 38.925 205.263 39.3645 206.227 40.2434L206.529 39.2083H207.945ZM206.148 42.2258C205.426 41.0409 204.332 40.4485 202.867 40.4485C202.171 40.4485 201.555 40.6112 201.021 40.9368C200.032 41.5357 199.537 42.4504 199.537 43.6809C199.537 44.4882 199.791 45.1913 200.299 45.7903C200.93 46.5455 201.777 46.9231 202.838 46.9231C203.945 46.9231 204.866 46.5357 205.602 45.761C205.803 45.5527 205.986 45.302 206.148 45.009V42.2258ZM222.498 45.302H213.406C213.432 46.539 213.722 47.5253 214.275 48.261C215.024 49.2571 216.111 49.7551 217.537 49.7551C219.041 49.7551 220.304 49.1041 221.326 47.802L222.459 49.0032C221.163 50.5592 219.493 51.3372 217.449 51.3372C215.411 51.3372 213.846 50.6438 212.752 49.2571C211.906 48.1829 211.482 46.8352 211.482 45.2141C211.482 43.8209 211.788 42.6067 212.4 41.5715C212.999 40.5689 213.813 39.8365 214.842 39.3743C215.558 39.0487 216.32 38.886 217.127 38.886C219.002 38.886 220.444 39.6347 221.453 41.1321C222.15 42.1672 222.498 43.3847 222.498 44.7844V45.302ZM220.584 43.9055C220.506 42.942 220.2 42.1542 219.666 41.5422C219.002 40.774 218.143 40.3899 217.088 40.3899C216.32 40.3899 215.62 40.634 214.988 41.1223C214.155 41.7603 213.654 42.6881 213.484 43.9055H220.584ZM226.709 34.804H231.729C233.154 34.804 234.3 34.9635 235.166 35.2825C235.921 35.5624 236.53 35.9758 236.992 36.5227C237.546 37.1737 237.822 37.955 237.822 38.8665C237.822 39.9732 237.451 40.8554 236.709 41.5129C236.143 42.0142 235.381 42.3593 234.424 42.5481V42.6067C235.576 42.828 236.491 43.1959 237.168 43.7102C238.099 44.4198 238.564 45.3541 238.564 46.5129C238.564 48.2382 237.803 49.4784 236.279 50.2336C235.231 50.748 233.919 51.0051 232.344 51.0051H226.709V34.804ZM228.525 36.3079V41.8254H231.465C232.546 41.8254 233.48 41.6594 234.268 41.3274C235.316 40.8847 235.84 40.1425 235.84 39.1008C235.84 37.2389 234.427 36.3079 231.602 36.3079H228.525ZM228.525 43.2903V49.4817H232.109C233.333 49.4817 234.29 49.3027 234.98 48.9446C235.254 48.8079 235.501 48.6321 235.723 48.4172C236.27 47.8769 236.543 47.2128 236.543 46.425C236.543 45.3834 236.025 44.5891 234.99 44.0422C234.027 43.5409 232.884 43.2903 231.562 43.2903H228.525ZM249.807 43.5442V43.1633C249.807 42.2258 249.549 41.526 249.035 41.0637C248.566 40.6405 247.844 40.429 246.867 40.429C245.435 40.429 244.12 40.8879 242.922 41.8059L242.121 40.5071C243.514 39.4524 245.106 38.925 246.896 38.925C248.524 38.925 249.751 39.3645 250.578 40.2434C251.262 40.9726 251.604 41.9752 251.604 43.2512V47.4895C251.604 48.9869 251.838 50.1588 252.307 51.0051H250.549C250.295 50.4648 250.106 49.7714 249.982 48.925H249.924C249.553 49.5891 249.006 50.1555 248.283 50.6243C247.548 51.106 246.639 51.3469 245.559 51.3469C244.432 51.3469 243.498 51.0149 242.756 50.3508C241.975 49.6477 241.584 48.7525 241.584 47.6653C241.584 46.3632 242.154 45.3476 243.293 44.6184C244.419 43.9023 246.135 43.5442 248.439 43.5442H249.807ZM249.807 44.9309H248.547C245.161 44.9309 243.469 45.8359 243.469 47.6458C243.469 48.2317 243.651 48.72 244.016 49.1106C244.458 49.5728 245.067 49.804 245.842 49.804C246.844 49.804 247.723 49.4849 248.479 48.8469C249.364 48.1047 249.807 47.2258 249.807 46.2102V44.9309ZM255.922 48.2024C257.133 49.205 258.497 49.7063 260.014 49.7063C261.765 49.7063 262.641 49.1269 262.641 47.968C262.641 47.4342 262.341 46.9784 261.742 46.6008C261.358 46.3599 260.759 46.0963 259.945 45.8098L258.93 45.4485C257.803 45.0514 256.986 44.6444 256.479 44.2278C255.854 43.7135 255.541 43.0201 255.541 42.1477C255.541 41.106 255.987 40.2792 256.879 39.6672C257.615 39.1594 258.536 38.9055 259.643 38.9055C261.257 38.9055 262.745 39.3743 264.105 40.3118L263.168 41.7083C262.081 40.8814 260.938 40.468 259.74 40.468C259.206 40.468 258.754 40.5657 258.383 40.761C257.79 41.0605 257.494 41.5064 257.494 42.0989C257.494 42.5676 257.702 42.9355 258.119 43.2024C258.38 43.3717 258.969 43.6256 259.887 43.9641L261.127 44.4231C262.253 44.8463 263.09 45.2955 263.637 45.7708C264.307 46.3502 264.643 47.0696 264.643 47.929C264.643 49.0487 264.154 49.9342 263.178 50.5852C262.429 51.08 261.329 51.3274 259.877 51.3274C258.021 51.3274 256.378 50.748 254.945 49.5891L255.922 48.2024ZM278.521 45.302H269.43C269.456 46.539 269.745 47.5253 270.299 48.261C271.048 49.2571 272.135 49.7551 273.561 49.7551C275.064 49.7551 276.327 49.1041 277.35 47.802L278.482 49.0032C277.187 50.5592 275.517 51.3372 273.473 51.3372C271.435 51.3372 269.869 50.6438 268.775 49.2571C267.929 48.1829 267.506 46.8352 267.506 45.2141C267.506 43.8209 267.812 42.6067 268.424 41.5715C269.023 40.5689 269.837 39.8365 270.865 39.3743C271.581 39.0487 272.343 38.886 273.15 38.886C275.025 38.886 276.467 39.6347 277.477 41.1321C278.173 42.1672 278.521 43.3847 278.521 44.7844V45.302ZM276.607 43.9055C276.529 42.942 276.223 42.1542 275.689 41.5422C275.025 40.774 274.166 40.3899 273.111 40.3899C272.343 40.3899 271.643 40.634 271.012 41.1223C270.178 41.7603 269.677 42.6881 269.508 43.9055H276.607Z" fill="#1F1F1F"/>
</svg>
